<svg width="1200" height="700" viewBox="0 0 1200 700" fill="none" xmlns="http://www.w3.org/2000/svg">
  <rect width="1200" height="700" fill="#F7F4EF"/>
  <rect x="80" y="90" width="1040" height="520" rx="28" fill="#FFFFFF" stroke="#DDD6CF" stroke-width="2"/>
  <rect x="130" y="140" width="260" height="380" rx="18" fill="#F4EEE7" stroke="#E0D6CC"/>
  <rect x="430" y="140" width="640" height="60" rx="14" fill="#F9F6F2" stroke="#E0D6CC"/>
  <rect x="430" y="220" width="640" height="160" rx="18" fill="#FDFBF8" stroke="#E0D6CC"/>
  <rect x="430" y="400" width="640" height="120" rx="18" fill="#F9F6F2" stroke="#E0D6CC"/>
  <circle cx="160" cy="190" r="24" fill="#C33A2E"/>
  <circle cx="160" cy="260" r="24" fill="#F0DDD7"/>
  <circle cx="160" cy="330" r="24" fill="#F0DDD7"/>
  <rect x="200" y="180" width="150" height="20" rx="10" fill="#D7CEC5"/>
  <rect x="200" y="250" width="120" height="20" rx="10" fill="#E2D9D0"/>
  <rect x="200" y="320" width="140" height="20" rx="10" fill="#E2D9D0"/>
  <rect x="460" y="250" width="220" height="24" rx="12" fill="#D6CAC1"/>
  <rect x="460" y="290" width="320" height="16" rx="8" fill="#E1D7CD"/>
  <rect x="460" y="430" width="220" height="20" rx="10" fill="#D6CAC1"/>
  <rect x="460" y="470" width="300" height="14" rx="7" fill="#E1D7CD"/>
</svg>
